<svg width="16" height="16" viewBox="0 0 16 16" fill="none" xmlns="http://www.w3.org/2000/svg">
<path d="M16 7.9995C16 12.418 12.4185 15.9995 8 15.9995C3.58154 15.9995 0 12.418 0 7.9995C0 3.58104 3.58105 0 8 0C12.419 0 16 3.58153 16 7.9995Z" fill="#FFD629"/>
<path d="M8.47604 15.967C4.38004 15.3703 1.29031 11.7932 1.29031 7.648C1.29031 4.85022 2.67616 2.24344 4.99739 0.675934L5.45425 1.35238C3.35751 2.76875 2.10656 5.12099 2.10656 7.648C2.10656 11.3915 4.89548 14.6206 8.59419 15.1601L8.47604 15.967Z" fill="#FFA515"/>
<path d="M8.85707 14.7683C5.64673 14.7683 3.03406 11.7342 3.03406 8.00396C3.03406 4.27325 5.64624 1.23965 8.85707 1.23965C12.0679 1.23965 14.6801 4.27325 14.6801 8.00396C14.6801 11.7342 12.0679 14.7683 8.85707 14.7683ZM8.85707 2.0554C6.09621 2.0554 3.8503 4.7242 3.8503 8.00396C3.8503 11.2842 6.0967 13.953 8.85707 13.953C11.6179 13.953 13.8643 11.2842 13.8643 8.00396C13.8643 4.7242 11.6179 2.0554 8.85707 2.0554Z" fill="#FFA515"/>
<path d="M11.4408 7.95127C10.338 7.40973 9.03931 7.45009 7.8622 7.18425C7.52054 7.10695 7.18823 6.94499 6.89728 6.75397C6.86331 6.73231 6.83328 6.70327 6.80374 6.67226C7.18429 6.23656 8.15217 6.12924 8.71685 6.09478C9.21309 6.06278 9.71032 6.07459 10.2016 6.16075C10.2386 6.16715 10.2745 6.17502 10.3114 6.18486L10.2046 3.86463C9.1491 3.68001 7.88337 3.89859 7.10257 4.21219C6.15537 4.59324 5.54983 5.46561 5.40263 6.45711C5.25199 7.47668 5.7758 8.34117 6.6782 8.78031C7.56239 9.21009 8.60116 9.21404 9.55623 9.32825C10.0436 9.38634 10.531 9.47446 10.981 9.67139C10.8451 9.83385 10.6797 9.96087 10.5044 10.0844C9.77039 10.5955 8.77149 10.6142 7.91931 10.5054C7.64214 10.4704 7.33445 10.3961 7.07697 10.2558L6.89039 12.0576C7.54811 12.3786 8.35894 12.4387 9.0654 12.3801C10.1086 12.2924 11.041 11.8804 11.7155 11.0671C12.4943 10.1282 12.6848 8.56222 11.4408 7.95127Z" fill="#FFA515"/>
<path d="M9.40407 13.0294L7.64407 3.14833L8.72567 3.10501L10.0436 12.8685L9.40407 13.0294Z" fill="#FFA515"/>
</svg>
