<svg width="118" height="100" viewBox="0 0 118 100" fill="none" xmlns="http://www.w3.org/2000/svg">
<path d="M23.2193 9.39097C20.3518 9.85098 17.2621 11.375 15.1318 8.56811C13.4243 6.3178 15.7661 2.44462 18.3907 2.39148C20.2792 2.35319 20.9673 4.17149 19.7575 5.46236C18.5832 6.71495 16.0198 6.00808 16.4506 4.18235C16.8541 2.47433 19.5604 0.78403 21.2055 0.689172C21.8073 0.653743 22.189 -0.045121 21.3621 0.00230809C19.2735 0.123452 14.0238 2.93491 15.3729 5.64237C16.8558 8.6184 23.1478 5.63894 21.5044 3.07548C19.2107 -0.502841 14.3946 3.06462 13.526 5.88465C12.9003 7.91725 14.2083 9.88927 16.0409 10.6956C18.2004 11.6453 20.9113 10.423 23.0627 10.0784C23.6421 9.9847 24.0439 9.25954 23.2193 9.39097Z" fill="#FFB0D0"/>
<path d="M88.6571 31.9169C88.6571 31.9169 85.8719 64.3132 43.7766 64.8298C1.68134 65.3458 -2.23927 23.8694 18.2924 10.0441C38.824 -3.78175 88.1411 -4.09089 88.6571 31.9169Z" fill="#FFB0D0"/>
<path d="M75.8444 9.63099L85.2519 3.74979C85.2519 3.74979 87.9759 15.3836 86.2833 16.0276C84.5913 16.6722 75.8444 9.63099 75.8444 9.63099Z" fill="#FF6C47"/>
<path d="M60.6933 17.7351C60.0996 20.8231 63.3711 25.502 66.8311 23.9854C69.7534 22.7043 69.8146 17.5871 68.6894 15.095C68.5591 14.8065 67.402 15.2127 67.494 15.4156C68.4546 17.5431 68.2968 20.5442 67.3203 22.6225C66.398 24.5854 64.5637 23.4025 63.5042 22.2791C62.3785 21.0848 61.5545 19.1728 61.8716 17.5213C61.9236 17.2528 60.7476 17.4471 60.6933 17.7351Z" fill="#111C70"/>
<path d="M71.6021 14.7544C71.0083 17.8425 74.2798 22.522 77.7398 21.0054C80.6621 19.7236 80.7233 14.6064 79.5981 12.115C79.4684 11.8264 78.3107 12.2321 78.4027 12.435C79.3633 14.563 79.2061 17.5648 78.229 19.6425C77.3067 21.6048 75.4724 20.4225 74.4135 19.2985C73.2872 18.1042 72.4632 16.1922 72.7804 14.5413C72.8324 14.2727 71.6575 14.4664 71.6021 14.7544Z" fill="#111C70"/>
<path d="M49.6573 12.9327L58.8397 17.1625C58.8397 17.1625 52.443 27.2734 50.3796 27.0677C48.3156 26.8609 49.6573 12.9327 49.6573 12.9327Z" fill="#FF6C47"/>
<path d="M67.4506 13.6927C58.6791 -0.475973 31.9679 8.56812 31.6993 8.66183L30.7531 5.93209C31.9393 5.52066 59.9208 -3.96058 69.9072 12.1733L67.4506 13.6927Z" fill="#111C70"/>
<path d="M62.1779 43.8976C61.6831 46.5553 61.1048 50.3891 61.2414 53.212C58.7528 54.0251 55.6207 54.1611 55.7442 49.5965C55.947 42.2136 62.0008 35.5238 62.2402 35.2638C62.1328 35.5524 59.5745 42.4033 62.1779 43.8976Z" fill="white"/>
<path d="M58.851 53.8606C58.2087 53.8606 57.599 53.74 57.0773 53.4371C56.003 52.8137 55.4847 51.5188 55.5379 49.5897C55.7436 42.0679 62.0293 35.1827 62.0928 35.1141L62.8202 34.3272L62.4374 35.3278C62.4139 35.3889 60.1071 41.4913 61.8956 43.4113C62.4814 44.0399 63.4837 44.1456 64.8757 43.7233L64.9957 44.1182C63.4408 44.589 62.2962 44.4468 61.5933 43.6919C60.0956 42.0839 61.0922 38.1267 61.6934 36.2255C60.055 38.2581 56.1116 43.7428 55.951 49.6011C55.9024 51.3668 56.3516 52.5377 57.2853 53.0806C59.5665 54.4051 64.0528 51.7171 64.0979 51.6891L64.3122 52.0423C64.1597 52.1343 61.2813 53.8606 58.851 53.8606Z" fill="#111C70"/>
<path d="M62.7374 34.7952C62.722 34.7952 62.706 34.7952 62.69 34.7935C62.006 34.7432 61.7128 33.5512 61.6819 33.4158L62.0837 33.3232C62.1797 33.7381 62.4488 34.3621 62.7202 34.3821C62.8322 34.3952 63.2557 34.2895 63.9088 32.6238L64.2928 32.7741C63.754 34.1501 63.258 34.7952 62.7374 34.7952Z" fill="#111C70"/>
<path d="M61.3048 43.041L59.227 53.6274L59.4289 53.667L61.5067 43.0807L61.3048 43.041Z" fill="#111C70"/>
<path d="M60.9297 41.4485L56.7054 52.9522L56.8991 53.0233L61.1233 41.5196L60.9297 41.4485Z" fill="#111C70"/>
<path d="M61.1294 38.9141L55.9513 46.9868L56.1249 47.0982L61.3031 39.0255L61.1294 38.9141Z" fill="#111C70"/>
<path d="M57.9335 41.7827L57.7605 41.8951L61.4984 47.6515L61.6714 47.5391L57.9335 41.7827Z" fill="#111C70"/>
<path d="M100.769 28.5369C104.061 35.773 99.1229 45.1016 89.7377 49.372C80.353 53.6429 70.0757 51.2371 66.7831 44.001C63.4905 36.765 68.4289 27.4363 77.8135 23.166C87.1988 18.8962 97.476 21.3002 100.769 28.5369Z" fill="#FF6C47"/>
<path d="M82.3873 37.0861C81.9398 40.8748 80.3233 43.7982 78.777 43.6153C77.2307 43.4325 76.3398 40.2136 76.7878 36.4244C77.2352 32.6358 78.8518 29.7124 80.3981 29.8958C81.9444 30.0786 82.8353 33.2981 82.3873 37.0861Z" fill="#111C70"/>
<path d="M93.9257 32.829C95.0291 37.549 94.3611 41.7416 92.4342 42.1919C90.5074 42.6422 88.0508 39.1799 86.9473 34.4587C85.8439 29.7386 86.5119 25.546 88.4388 25.0957C90.3657 24.6454 92.8222 28.1078 93.9257 32.829Z" fill="#111C70"/>
<path opacity="0.2" d="M21.2661 22.8797C17.1066 28.5203 11.9877 31.8055 9.83227 30.2158C7.67625 28.6266 9.30141 22.7648 13.4609 17.1236C17.6203 11.483 22.7398 8.19783 24.8953 9.78756C27.0507 11.3773 25.4256 17.2385 21.2661 22.8797Z" fill="white"/>
<path opacity="0.2" d="M15.506 51.4857L49.2287 59.1355C49.2287 59.1355 31.3953 69.7133 15.506 51.4857Z" fill="white"/>
<path d="M16.3318 39.9644C16.3318 39.9644 13.8558 68.7499 2.91907 44.7102L0.339613 49.0434C0.339613 49.0434 -1.10497 38.8296 5.60138 43.8845L8.26998 37.2815" fill="#FFB0D0"/>
<path d="M10.5231 54.4966C8.2934 54.4966 5.79109 51.4302 2.89563 45.1536L0.217886 49.6531L0.135601 49.0725C0.104744 48.8565 -0.58955 43.7627 1.49047 42.5364C2.44305 41.9764 3.79449 42.3199 5.50994 43.5616L8.07854 37.205L8.4614 37.3598L5.69223 44.2125L5.47737 44.0507C3.80535 42.7902 2.53505 42.4016 1.70019 42.893C0.244745 43.7507 0.361888 47.0336 0.479603 48.4068L2.94363 44.2667L3.10706 44.6256C6.12081 51.2508 8.73226 54.416 10.8631 54.0554C14.926 53.3554 16.1146 40.081 16.126 39.9473L16.5369 39.9827C16.4883 40.5427 15.3066 53.7091 10.9329 54.4623C10.7974 54.4851 10.6608 54.4966 10.5231 54.4966Z" fill="#111C70"/>
<path d="M1.80075 46.5885L0.340165 49.0439C0.340165 49.0439 0.0390191 46.8976 0.352165 45.061L1.80075 46.5885Z" fill="#111C70"/>
<path d="M50.9984 58.9486C50.9984 58.9486 50.9984 71.8453 53.7842 71.0196C56.5699 70.1945 58.9425 66.0676 58.9425 66.0676C58.9425 66.0676 61.0065 70.9922 62.1408 71.0579C63.2757 71.123 62.6568 60.1864 62.6568 60.1864L56.9116 62.2498L55.2282 57.2978" fill="#FFB0D0"/>
<path d="M53.5304 71.2647C53.3081 71.2647 53.0961 71.1905 52.8973 71.0413C50.8161 69.4876 50.7921 59.3778 50.7921 58.9486H51.2047C51.2047 61.8172 51.5533 69.523 53.1441 70.711C53.3293 70.8493 53.5144 70.8836 53.7253 70.8224C56.4013 70.0293 58.7408 66.0053 58.7636 65.9647L58.9716 65.603L59.1328 65.9881C59.9693 67.9836 61.4591 70.8122 62.1534 70.8522C62.6774 70.571 62.7271 65.3018 62.4665 60.4743L56.7842 62.5149L55.0333 57.364L55.4242 57.2309L57.0402 61.9841L62.8477 59.8983L62.8631 60.1743C62.9208 61.1955 63.3997 70.1784 62.4419 71.135C62.3282 71.2493 62.2122 71.2676 62.1294 71.263C61.0539 71.2013 59.4825 67.8304 58.911 66.5167C58.2636 67.5447 56.2247 70.5116 53.843 71.2167C53.7367 71.2493 53.6327 71.2647 53.5304 71.2647Z" fill="#111C70"/>
<path d="M62.822 66.6864C62.7974 69.0224 62.6368 71.0859 62.1414 71.0567C61.6585 71.0276 61.0151 70.1321 60.4288 69.1087L62.822 66.6864Z" fill="#111C70"/>
<path d="M64.2048 57.8137C64.2048 57.8137 65.3397 65.4487 67.6094 66.583C69.8797 67.7184 72.5621 62.1989 72.5621 62.1989C72.5621 62.1989 75.2444 66.4807 76.3792 66.0681C77.5141 65.6555 75.1415 56.7823 75.1415 56.7823L70.446 59.3618V52.7588" fill="#FFB0D0"/>
<path d="M76.3793 66.0675C75.789 66.2813 74.7827 65.2298 73.9529 64.1692L76.3793 62.3121C76.713 64.2064 76.8581 65.8944 76.3793 66.0675Z" fill="#111C70"/>
<path d="M57.3265 85.43L44.0709 80.0957L43.5572 81.75C43.5572 81.75 44.6149 91.2289 58.1653 90.094L59.7145 88.7866L57.3265 85.43Z" fill="#FFD414"/>
<path d="M57.3265 85.43L44.0709 80.0957L43.5572 81.75C43.5572 81.75 44.6149 91.2289 58.1653 90.094L59.7145 88.7866L57.3265 85.43Z" fill="#F5A80F"/>
<path d="M60.7288 87.6186C59.4991 90.1466 54.8144 90.4009 50.2658 88.1877C45.7172 85.9746 43.0269 82.1311 44.2566 79.6031C45.4869 77.0751 50.171 76.8202 54.7196 79.0334C59.2682 81.2471 61.9585 85.0906 60.7288 87.6186Z" fill="#FFD414"/>
<path d="M55.6527 88.9477C54.0573 88.9477 52.2361 88.4889 50.5247 87.6563C48.6384 86.738 47.0612 85.4643 46.0846 84.0683C45.0829 82.6374 44.8258 81.2425 45.3618 80.1408C45.9389 78.9545 47.3864 78.2739 49.3327 78.2739C50.9281 78.2739 52.7493 78.7328 54.4613 79.5659C56.3476 80.4831 57.9242 81.7574 58.9013 83.1528C59.9036 84.5843 60.1602 85.9791 59.6242 87.0809C59.0465 88.2666 57.599 88.9477 55.6527 88.9477ZM49.3327 78.6865C47.5504 78.6865 46.2384 79.2825 45.7326 80.3214C45.2652 81.2819 45.5098 82.5282 46.4224 83.8317C47.3595 85.1706 48.8807 86.3968 50.7047 87.2849C52.3607 88.0906 54.1184 88.5352 55.6522 88.5352C57.4345 88.5352 58.7465 87.9392 59.2522 86.9003C59.7191 85.9397 59.4745 84.6928 58.5631 83.39C57.6253 82.0511 56.1047 80.8248 54.2801 79.9368C52.6241 79.1305 50.867 78.6865 49.3327 78.6865Z" fill="#F5A80F"/>
<path d="M57.9665 86.2746C57.1487 87.9541 54.0361 88.1238 51.0127 86.6535C47.9886 85.182 46.2012 82.6271 47.0189 80.9477C47.8361 79.2671 50.9498 79.098 53.9727 80.5688C56.9962 82.0397 58.7842 84.5946 57.9665 86.2746Z" fill="#F5A80F"/>
<path d="M52.6847 86.3695C53.7167 86.2883 54.4173 85.1774 54.831 84.3432C55.0733 83.8529 55.619 82.3608 54.6584 82.2626C54.1819 82.2146 53.687 82.5768 53.3041 82.8111C52.7264 83.1637 52.0864 83.578 51.3944 83.6369C50.6887 83.6974 50.3761 83.1106 50.6961 82.5254C50.9812 82.0037 51.4835 81.5243 51.9927 81.2208C52.2384 81.0745 52.407 80.3323 52.0076 80.57C51.1293 81.0946 50.0612 82.1357 49.979 83.2163C49.9401 83.7197 50.1927 84.2054 50.715 84.3232C51.3018 84.4552 51.8944 84.2066 52.4138 83.9557C52.7898 83.7752 54.6904 82.3209 54.6259 83.43C54.5824 84.1769 53.8179 85.5803 52.9784 85.6466C52.679 85.6706 52.3733 86.3946 52.6847 86.3695Z" fill="#FFD414"/>
<path d="M54.9013 85.6129C53.1384 84.3454 51.3355 83.1128 49.8647 81.498C49.7372 81.3574 49.5024 81.6763 49.6092 81.794C51.0955 83.4254 52.9138 84.674 54.6956 85.9557C54.831 86.0529 55.0424 85.7146 54.9013 85.6129Z" fill="#FFD414"/>
<path d="M55.3624 84.6323C53.6481 83.3969 51.9407 82.1523 50.3847 80.718C50.2761 80.618 50.0561 80.9477 50.1784 81.0603C51.7338 82.4951 53.4413 83.7391 55.1562 84.9746C55.2824 85.0654 55.4944 84.7272 55.3624 84.6323Z" fill="#FFD414"/>
<path d="M39.1211 86.042L24.8678 85.0329L24.8867 86.7649C24.8867 86.7649 28.8022 95.4621 41.3503 90.2238L42.4234 88.5038L39.1211 86.042Z" fill="#FFD414"/>
<path d="M39.1211 86.042L24.8678 85.0329L24.8867 86.7649C24.8867 86.7649 28.8022 95.4621 41.3503 90.2238L42.4234 88.5038L39.1211 86.042Z" fill="#F5A80F"/>
<path d="M43.0309 87.0803C42.6354 89.8638 38.2554 91.5438 33.2473 90.8329C28.2387 90.1221 24.4993 87.2895 24.8941 84.5066C25.289 81.7231 29.669 80.0431 34.6776 80.7546C39.6857 81.4648 43.4257 84.2969 43.0309 87.0803Z" fill="#FFD414"/>
<path d="M35.2759 90.3872C34.6377 90.3872 33.9828 90.3404 33.3308 90.2478C31.2536 89.9535 29.3622 89.2249 28.0039 88.1963C26.6107 87.1409 25.9387 85.8923 26.1107 84.6803C26.4016 82.6311 29.0902 81.2003 32.6491 81.2003C33.2879 81.2003 33.9422 81.2471 34.5948 81.3397C36.6714 81.6345 38.5634 82.3626 39.9211 83.3917C41.3143 84.4472 41.9863 85.6957 41.8143 86.9083C41.5234 88.9563 38.8348 90.3872 35.2759 90.3872ZM32.6491 81.6123C29.301 81.6123 26.7799 82.8974 26.5193 84.7374C26.369 85.7952 26.9844 86.906 28.2524 87.8666C29.5559 88.854 31.3793 89.5541 33.3879 89.8392C34.0211 89.9289 34.6559 89.9746 35.2754 89.9746C38.6234 89.9746 41.1446 88.69 41.4057 86.85C41.556 85.7929 40.9406 84.6809 39.672 83.7203C38.3691 82.7328 36.5451 82.0328 34.5365 81.7477C33.9034 81.658 33.2679 81.6123 32.6491 81.6123Z" fill="#F5A80F"/>
<path d="M39.9897 86.6495C39.7268 88.4986 36.8165 89.6146 33.4879 89.1432C30.1587 88.6706 27.673 86.7883 27.9353 84.9386C28.1981 83.0889 31.109 81.9723 34.4376 82.4443C37.7668 82.9163 40.2525 84.7992 39.9897 86.6495Z" fill="#F5A80F"/>
<path d="M34.9919 88.3609C35.9491 87.9666 36.2754 86.6952 36.412 85.7735C36.4931 85.2323 36.5542 83.6455 35.6102 83.8466C35.1417 83.9472 34.7822 84.4437 34.4902 84.7843C34.0479 85.2975 33.5656 85.8878 32.9256 86.1569C32.2725 86.4312 31.7948 85.9678 31.9199 85.3135C32.0313 84.7295 32.3622 84.1186 32.7531 83.674C32.9428 83.4592 32.8748 82.7009 32.5679 83.05C31.8925 83.8186 31.1959 85.1369 31.4491 86.1912C31.5668 86.6815 31.9553 87.0672 32.4896 87.0186C33.0885 86.9638 33.5759 86.5455 33.9942 86.1478C34.2965 85.8598 35.6588 83.8929 35.9377 84.9683C36.1257 85.6929 35.8291 87.2632 35.0497 87.5838C34.7719 87.6975 34.7028 88.4804 34.9919 88.3609Z" fill="#FFD414"/>
<path d="M36.8691 86.9603C34.8022 86.2952 32.7079 85.6746 30.8125 84.5895C30.6479 84.4952 30.5216 84.87 30.6599 84.9495C32.5748 86.046 34.6885 86.6769 36.7783 87.3501C36.9371 87.4009 37.0343 87.0141 36.8691 86.9603Z" fill="#FFD414"/>
<path d="M37.0068 85.8849C34.9959 85.2358 32.9891 84.5752 31.0679 83.6872C30.9336 83.6255 30.8262 84.0066 30.9765 84.0763C32.8976 84.9649 34.9045 85.6243 36.9154 86.2741C37.064 86.3221 37.1623 85.9352 37.0068 85.8849Z" fill="#FFD414"/>
<path d="M68.058 84.7963L54.5979 80.0025L54.151 81.6763C54.151 81.6763 55.591 91.1055 69.0843 89.4238L70.5792 88.0546L68.058 84.7963Z" fill="#FFD414"/>
<path d="M68.058 84.7963L54.5979 80.0025L54.151 81.6763C54.151 81.6763 55.591 91.1055 69.0843 89.4238L70.5792 88.0546L68.058 84.7963Z" fill="#F5A80F"/>
<path d="M71.5466 86.8455C70.4197 89.4204 65.7494 89.8649 61.1151 87.8369C56.4807 85.8095 53.6378 82.078 54.7641 79.5026C55.891 76.9271 60.5608 76.4831 65.1951 78.5111C69.83 80.5386 72.6729 84.27 71.5466 86.8455Z" fill="#FFD414"/>
<path d="M66.1768 88.3855C64.6505 88.3855 62.9819 88.0084 61.3522 87.2952C59.4299 86.4546 57.803 85.2449 56.7704 83.89C55.7116 82.5003 55.399 81.1174 55.8898 79.9951C56.4556 78.7031 58.0019 77.962 60.1339 77.962C61.6602 77.962 63.3282 78.3391 64.9579 79.0523C66.8802 79.8928 68.5071 81.102 69.5397 82.458C70.5991 83.8472 70.9117 85.2306 70.4208 86.3529C69.8551 87.6443 68.3083 88.3855 66.1768 88.3855ZM60.1339 78.3751C58.1733 78.3751 56.7641 79.0265 56.2676 80.1608C55.839 81.1397 56.1344 82.3751 57.0984 83.6409C58.0887 84.9403 59.6579 86.1049 61.5168 86.9175C63.0951 87.6078 64.7065 87.9729 66.1762 87.9729C68.1363 87.9729 69.5454 87.3221 70.042 86.1878C70.47 85.2089 70.1751 83.9729 69.2111 82.7077C68.2208 81.4077 66.6511 80.2431 64.7928 79.4311C63.2151 78.7403 61.6036 78.3751 60.1339 78.3751Z" fill="#F5A80F"/>
<path d="M68.7323 85.614C67.9831 87.3261 64.8791 87.6203 61.7991 86.2735C58.719 84.9255 56.8293 82.4454 57.5785 80.734C58.327 79.0225 61.4311 78.7277 64.5117 80.0746C67.5911 81.4226 69.4814 83.9032 68.7323 85.614Z" fill="#F5A80F"/>
<path d="M63.4579 85.9232C64.486 85.7997 65.1414 84.6626 65.5202 83.8112C65.7431 83.3112 66.2277 81.7991 65.2642 81.7397C64.786 81.7106 64.3065 82.0934 63.9334 82.342C63.3699 82.7186 62.7471 83.1574 62.0585 83.2449C61.3556 83.3346 61.0196 82.7597 61.3156 82.1626C61.5796 81.63 62.0625 81.1306 62.5585 80.8066C62.7979 80.6506 62.9362 79.902 62.5465 80.1557C61.6899 80.7151 60.6653 81.7991 60.6271 82.882C60.6088 83.3866 60.8802 83.8614 61.4076 83.958C61.9991 84.066 62.5814 83.7934 63.0905 83.5226C63.4591 83.326 65.2985 81.7963 65.2785 82.9077C65.2654 83.6557 64.5585 85.0889 63.7219 85.1895C63.4242 85.2249 63.1482 85.9609 63.4579 85.9232Z" fill="#FFD414"/>
<path d="M65.6425 85.0775C63.83 83.882 61.9785 82.7231 60.4431 81.1694C60.3099 81.0346 60.0876 81.362 60.1996 81.4757C61.7505 83.0454 63.6174 84.2197 65.45 85.4283C65.59 85.5197 65.7877 85.1729 65.6425 85.0775Z" fill="#FFD414"/>
<path d="M66.0637 84.0786C64.3008 82.914 62.5443 81.7391 60.9317 80.3688C60.8191 80.2734 60.6128 80.6117 60.7397 80.7191C62.3523 82.09 64.1088 83.2643 65.8717 84.4289C66.0014 84.5146 66.1997 84.1689 66.0637 84.0786Z" fill="#FFD414"/>
<path d="M58.6282 87.3832L45.7732 93.6209L46.6538 95.113C46.6538 95.113 54.387 100.696 62.6471 89.8946L62.7179 87.8683L58.6282 87.3832Z" fill="#FFD414"/>
<path d="M58.6282 87.3832L45.7732 93.6209L46.6538 95.113C46.6538 95.113 54.387 100.696 62.6471 89.8946L62.7179 87.8683L58.6282 87.3832Z" fill="#F5A80F"/>
<path d="M62.5345 86.3323C63.5814 88.9409 60.6236 92.5827 55.9287 94.4667C51.2338 96.3496 46.5795 95.7616 45.5332 93.1524C44.4863 90.5432 47.4435 86.9015 52.1384 85.018C56.8339 83.1346 61.4882 83.7226 62.5345 86.3323Z" fill="#FFD414"/>
<path d="M51.1389 94.8621C48.8875 94.8621 47.2183 94.0524 46.6737 92.6952C45.7497 90.3924 48.3006 87.1941 52.3589 85.5666C53.899 84.9483 55.479 84.622 56.9281 84.622C59.1801 84.622 60.8493 85.4317 61.3939 86.7895C62.3168 89.0918 59.767 92.289 55.7081 93.9175C54.1681 94.5358 52.5881 94.8621 51.1389 94.8621ZM56.9287 85.0346C55.5315 85.0346 54.0047 85.3512 52.5127 85.9495C48.6658 87.4929 46.2183 90.4501 47.0572 92.5415C47.5366 93.7364 49.0623 94.4501 51.1389 94.4501C52.5361 94.4501 54.063 94.1336 55.5555 93.5347C59.4024 91.9912 61.8505 89.0346 61.0116 86.9438C60.5316 85.7483 59.0053 85.0346 56.9287 85.0346Z" fill="#F5A80F"/>
<path d="M59.6836 87.4757C60.379 89.2095 58.4133 91.6289 55.2933 92.8821C52.1732 94.1335 49.0795 93.7421 48.3841 92.0084C47.6886 90.2746 49.6538 87.8546 52.7744 86.602C55.895 85.3512 58.9887 85.7414 59.6836 87.4757Z" fill="#F5A80F"/>
<path d="M56.207 91.4535C56.8395 90.6341 56.4875 89.3695 56.1464 88.502C55.9458 87.9929 55.2075 86.5866 54.4898 87.2323C54.1338 87.5529 54.0704 88.1632 53.9864 88.6037C53.8595 89.2689 53.7361 90.0209 53.3155 90.5735C52.8869 91.1375 52.2412 90.9746 52.0229 90.3443C51.8286 89.7832 51.8109 89.0889 51.9275 88.5077C51.9841 88.2272 51.5469 87.6043 51.4549 88.0603C51.2532 89.0626 51.3081 90.5535 52.0538 91.3403C52.4001 91.7072 52.9298 91.8466 53.3681 91.5381C53.8595 91.1918 54.0732 90.586 54.2372 90.0329C54.3555 89.6323 54.5544 87.2483 55.3327 88.0409C55.8567 88.5757 56.3835 90.0838 55.8687 90.7506C55.6847 90.9878 56.0161 91.7009 56.207 91.4535Z" fill="#FFD414"/>
<path d="M57.135 89.3026C55.0116 89.7569 52.8875 90.2649 50.7035 90.27C50.5138 90.2706 50.5915 90.6586 50.751 90.658C52.9578 90.6523 55.1047 90.1443 57.251 89.6849C57.4133 89.6506 57.3047 89.266 57.135 89.3026Z" fill="#FFD414"/>
<path d="M56.7178 88.3015C54.651 88.7426 52.5824 89.1718 50.4743 89.3609C50.3275 89.374 50.4246 89.758 50.5892 89.7432C52.6972 89.554 54.7658 89.1243 56.8321 88.6838C56.9853 88.6523 56.8773 88.2677 56.7178 88.3015Z" fill="#FFD414"/>
<path d="M68.3151 92.4935L54.0293 92.7667L54.203 94.4907C54.203 94.4907 58.8825 102.801 70.9106 96.4587L71.8249 94.649L68.3151 92.4935Z" fill="#FFD414"/>
<path d="M68.3151 92.4935L54.0293 92.7667L54.203 94.4907C54.203 94.4907 58.8825 102.801 70.9106 96.4587L71.8249 94.649L68.3151 92.4935Z" fill="#F5A80F"/>
<path d="M72.3026 93.1781C72.1592 95.985 67.9472 98.0513 62.8951 97.7924C57.8431 97.5336 53.8647 95.0484 54.0082 92.2409C54.1522 89.4329 58.3642 87.3666 63.4157 87.6255C68.4677 87.8843 72.4461 90.3701 72.3026 93.1781Z" fill="#FFD414"/>
<path d="M63.6534 97.221C63.4134 97.221 63.1705 97.2147 62.9254 97.2022C60.8305 97.0947 58.8808 96.5387 57.4362 95.6364C55.9545 94.7107 55.1733 93.5273 55.2362 92.3044C55.363 89.8267 58.9459 87.9941 63.3859 88.2163C65.4808 88.3238 67.43 88.8798 68.8751 89.7826C70.3574 90.7084 71.1386 91.8918 71.0763 93.1158C70.9552 95.4559 67.7643 97.221 63.6534 97.221ZM62.6574 88.6101C58.8333 88.6101 55.7539 90.2415 55.647 92.325C55.5922 93.3918 56.3053 94.4433 57.6545 95.2861C59.0408 96.1519 60.9202 96.6861 62.9459 96.7901C67.0928 97.0004 70.55 95.3033 70.6632 93.0935C70.718 92.0261 70.0049 90.9747 68.6557 90.1318C67.2694 89.2655 65.39 88.7318 63.3642 88.6278C63.1259 88.6164 62.8905 88.6101 62.6574 88.6101Z" fill="#F5A80F"/>
<path d="M69.2346 93.021C69.1391 94.8861 66.3403 96.2593 62.9825 96.0878C59.6248 95.9158 56.9807 94.2638 57.0762 92.3975C57.1716 90.5318 59.9705 89.1592 63.3282 89.3301C66.6854 89.5032 69.3306 91.1547 69.2346 93.021Z" fill="#F5A80F"/>
<path d="M64.4106 95.1736C65.3289 94.6953 65.5397 93.3998 65.5934 92.4695C65.6249 91.9232 65.5443 90.3369 64.6214 90.6221C64.1637 90.7644 63.85 91.2918 63.5894 91.6564C63.1957 92.2072 62.7683 92.8381 62.1551 93.1632C61.5294 93.4952 61.0117 93.0764 61.0774 92.4129C61.1368 91.8221 61.4117 91.1844 61.7614 90.7061C61.93 90.4746 61.7945 89.7261 61.5197 90.1009C60.9168 90.9267 60.3408 92.3032 60.6877 93.3295C60.8488 93.8084 61.2705 94.157 61.798 94.0604C62.3894 93.9518 62.8374 93.4918 63.218 93.0581C63.4928 92.7438 64.6734 90.6632 65.0477 91.7089C65.2997 92.4135 65.1454 94.0038 64.398 94.3935C64.1323 94.5324 64.1334 95.3187 64.4106 95.1736Z" fill="#FFD414"/>
<path d="M66.1551 93.6107C64.0363 93.133 61.8951 92.7033 59.9099 91.7924C59.7374 91.713 59.6454 92.0981 59.7905 92.1644C61.7962 93.0844 63.958 93.5233 66.0991 94.0061C66.262 94.0433 66.3243 93.6484 66.1551 93.6107Z" fill="#FFD414"/>
<path d="M66.1957 92.5272C64.1345 92.061 62.0762 91.5827 60.0836 90.8712C59.9442 90.8215 59.8716 91.2107 60.0271 91.2667C62.0202 91.9787 64.078 92.4564 66.1391 92.9227C66.2911 92.957 66.3546 92.5632 66.1957 92.5272Z" fill="#FFD414"/>
<path d="M93.8051 94.9918L80.0432 91.1478L79.7141 92.849C79.7141 92.849 81.8072 102.154 95.1508 99.5353L96.5474 98.065L93.8051 94.9918Z" fill="#FFD414"/>
<path d="M93.8051 94.9918L80.0432 91.1478L79.7141 92.849C79.7141 92.849 81.8072 102.154 95.1508 99.5353L96.5474 98.065L93.8051 94.9918Z" fill="#F5A80F"/>
<path d="M97.428 96.793C96.4834 99.4399 91.8553 100.209 87.0907 98.509C82.3255 96.8096 79.2301 93.2855 80.1741 90.6381C81.1192 87.9895 85.7473 87.2209 90.5108 88.9209C95.2759 90.6209 98.3726 94.145 97.428 96.793Z" fill="#FFD414"/>
<path d="M91.5114 98.7262C90.1691 98.7262 88.709 98.4587 87.2896 97.9525C85.3136 97.2473 83.6061 96.1547 82.4815 94.8747C81.3284 93.5621 80.9198 92.2038 81.3318 91.0507C81.8558 89.5809 83.6353 88.7038 86.0913 88.7038C87.4342 88.7038 88.8936 88.9712 90.3125 89.4775C92.2879 90.1821 93.9954 91.2752 95.1205 92.5553C96.2737 93.8678 96.6823 95.2261 96.2703 96.3799C95.7463 97.849 93.9674 98.7262 91.5114 98.7262ZM86.0913 89.1164C83.817 89.1164 82.1833 89.8912 81.7204 91.1895C81.3615 92.1958 81.7421 93.4073 82.7918 94.6021C83.8707 95.8307 85.5176 96.8822 87.4285 97.5639C88.8039 98.0542 90.2153 98.3136 91.5114 98.3136C93.7851 98.3136 95.4188 97.5393 95.8823 96.241C96.2411 95.2347 95.8605 94.0227 94.8102 92.8273C93.7308 91.5992 92.0845 90.5472 90.1742 89.8661C88.7993 89.3758 87.3867 89.1164 86.0913 89.1164Z" fill="#F5A80F"/>
<path d="M94.5348 95.7604C93.9068 97.5205 90.8319 98.0302 87.665 96.9016C84.4987 95.7719 82.4404 93.4296 83.0684 91.6695C83.6958 89.9101 86.7719 89.3998 89.9382 90.5284C93.1045 91.6587 95.1628 94.001 94.5348 95.7604Z" fill="#F5A80F"/>
<path d="M89.2953 96.4359C90.3119 96.2416 90.8862 95.061 91.2056 94.1856C91.3925 93.6718 91.7713 92.1284 90.8056 92.137C90.3268 92.1415 89.8748 92.5564 89.5199 92.8313C88.9845 93.2455 88.3942 93.7267 87.7124 93.8621C87.0176 94.001 86.6422 93.4507 86.8959 92.8335C87.1222 92.285 87.5684 91.753 88.041 91.3947C88.2696 91.2221 88.3547 90.4655 87.9833 90.7461C87.1684 91.3632 86.2216 92.5158 86.2587 93.5993C86.2753 94.1038 86.5799 94.5593 87.1124 94.6187C87.7096 94.685 88.2713 94.373 88.7605 94.0667C89.1142 93.845 90.8433 92.1912 90.901 93.3004C90.9399 94.0484 90.3348 95.5267 89.5073 95.685C89.2125 95.7421 88.9879 96.4953 89.2953 96.4359Z" fill="#FFD414"/>
<path d="M91.4148 95.4404C89.5233 94.3741 87.5959 93.3473 85.9564 91.9044C85.8141 91.7781 85.6153 92.121 85.7347 92.2261C87.3913 93.6838 89.3359 94.725 91.2479 95.8033C91.3936 95.8856 91.5668 95.525 91.4148 95.4404Z" fill="#FFD414"/>
<path d="M91.7657 94.4147C89.9256 93.3758 88.0913 92.3267 86.3873 91.0718C86.2685 90.9844 86.0867 91.3358 86.2199 91.4347C87.9239 92.689 89.7576 93.7387 91.5982 94.777C91.7342 94.8536 91.9074 94.4947 91.7657 94.4147Z" fill="#FFD414"/>
<path d="M78.5529 91.2455L65.0202 95.8313L65.7076 97.421C65.7076 97.421 72.6837 103.925 82.2267 94.2387L82.5507 92.2375L78.5529 91.2455Z" fill="#FFD414"/>
<path d="M78.5529 91.2455L65.0202 95.8313L65.7076 97.421C65.7076 97.421 72.6837 103.925 82.2267 94.2387L82.5507 92.2375L78.5529 91.2455Z" fill="#F5A80F"/>
<path d="M82.5598 90.6901C83.2724 93.409 79.8844 96.653 74.9906 97.9359C70.0974 99.2193 65.5534 98.0547 64.8408 95.3364C64.1277 92.6164 67.5163 89.3718 72.4095 88.0895C77.3026 86.806 81.8473 87.9706 82.5598 90.6901Z" fill="#FFD414"/>
<path d="M71.5008 97.8107C68.5762 97.8107 66.4791 96.7433 66.0288 95.0244C65.3996 92.6244 68.3294 89.7701 72.5586 88.6609C73.6894 88.3638 74.8123 88.2135 75.898 88.2135C78.8232 88.2135 80.9198 89.2821 81.3712 91.0015C81.9998 93.401 79.0701 96.2553 74.8409 97.3644C73.7106 97.661 72.5866 97.8107 71.5008 97.8107ZM75.8986 88.6266C74.8483 88.6266 73.7597 88.7723 72.6637 89.0598C68.6539 90.1112 65.8568 92.7404 66.4282 94.9193C66.8225 96.425 68.8139 97.3981 71.5008 97.3981C72.5511 97.3981 73.6397 97.2524 74.7363 96.965C78.7455 95.9136 81.5432 93.2855 80.9718 91.1061C80.5769 89.5998 78.586 88.6266 75.8986 88.6266Z" fill="#F5A80F"/>
<path d="M79.5884 91.4684C80.0621 93.2758 77.8101 95.4307 74.558 96.2844C71.306 97.1376 68.2854 96.3627 67.8117 94.5558C67.3374 92.7489 69.59 90.5929 72.842 89.7398C76.094 88.8878 79.1152 89.6615 79.5884 91.4684Z" fill="#F5A80F"/>
<path d="M75.6425 94.981C76.3728 94.2473 76.1814 92.9484 75.9511 92.0455C75.8157 91.5152 75.2585 90.0278 74.4654 90.5792C74.0722 90.8529 73.9328 91.4507 73.7951 91.8769C73.5859 92.521 73.37 93.2518 72.8842 93.7473C72.3882 94.2535 71.7676 94.0113 71.6299 93.3587C71.5071 92.7775 71.5762 92.0872 71.7642 91.5249C71.8551 91.2529 71.5002 90.5809 71.3516 91.0215C71.0271 91.9918 70.8945 93.4764 71.5356 94.3507C71.8345 94.7581 72.3425 94.9627 72.8157 94.7113C73.3465 94.429 73.6345 93.8547 73.8654 93.3261C74.0322 92.9438 74.5277 90.6021 75.2008 91.4867C75.6545 92.0821 75.9888 93.6444 75.3945 94.2421C75.1831 94.4547 75.4225 95.2033 75.6425 94.981Z" fill="#FFD414"/>
<path d="M76.8317 92.9633C74.6683 93.1495 72.4968 93.3884 70.33 93.1215C70.1414 93.0975 70.1705 93.4924 70.3288 93.5124C72.5185 93.7821 74.7117 93.5455 76.8992 93.3575C77.0649 93.3433 77.0049 92.9478 76.8317 92.9633Z" fill="#FFD414"/>
<path d="M76.5431 91.9186C74.4374 92.0981 72.3311 92.2655 70.2162 92.1901C70.0688 92.1849 70.1168 92.5781 70.2825 92.5849C72.3968 92.6592 74.5031 92.4924 76.6083 92.3124C76.7637 92.2986 76.7054 91.9049 76.5431 91.9186Z" fill="#FFD414"/>
<path d="M77.9861 79.1677L70.99 91.6261L72.5643 92.3489C72.5643 92.3489 82.1004 92.5204 82.7198 78.9368L81.6221 77.2322L77.9861 79.1677Z" fill="#FFD414"/>
<path d="M77.9861 79.1677L70.99 91.6261L72.5643 92.3489C72.5643 92.3489 82.1004 92.5204 82.7198 78.9368L81.6221 77.2322L77.9861 79.1677Z" fill="#F5A80F"/>
<path d="M80.5941 76.0751C82.9421 77.6202 82.5918 82.2986 79.8112 86.5243C77.0301 90.7501 72.8729 92.9232 70.5249 91.3781C68.1763 89.8323 68.526 85.1534 71.3077 80.9283C74.0878 76.7025 78.2461 74.5299 80.5941 76.0751Z" fill="#FFD414"/>
<path d="M72.8026 90.8049C72.1969 90.8049 71.6586 90.6524 71.2009 90.3518C69.1283 88.9878 69.398 84.9066 71.8014 81.254C73.6135 78.4991 76.2323 76.6482 78.3169 76.6482C78.9221 76.6482 79.4615 76.8008 79.9192 77.1019C81.9907 78.466 81.721 82.5471 79.3181 86.1997C77.5049 88.9546 74.886 90.8049 72.8026 90.8049ZM78.3169 77.0608C76.3649 77.0608 73.8849 78.8362 72.1454 81.4797C69.8677 84.9432 69.5454 88.7678 71.4277 90.0061C71.8169 90.2621 72.2792 90.3918 72.8026 90.3918C74.7535 90.3918 77.2335 88.6158 78.9735 85.9723C81.2512 82.5094 81.5741 78.6848 79.6924 77.4465C79.3032 77.1911 78.8404 77.0608 78.3169 77.0608Z" fill="#F5A80F"/>
<path d="M78.9055 78.6408C80.4661 79.6677 80.233 82.7769 78.3855 85.586C76.5381 88.3946 73.7741 89.8386 72.2135 88.8112C70.6535 87.7849 70.8866 84.6757 72.734 81.8671C74.5815 79.0585 77.3455 77.6139 78.9055 78.6408Z" fill="#F5A80F"/>
<path d="M78.3198 83.8918C78.3724 82.8575 77.3621 82.0203 76.5867 81.5026C76.1312 81.1992 74.7226 80.4654 74.5015 81.4054C74.3924 81.8723 74.6884 82.4095 74.8706 82.8186C75.1461 83.4375 75.4735 84.1249 75.4438 84.8186C75.4135 85.5266 74.7901 85.7609 74.2512 85.3689C73.7718 85.018 73.3609 84.4592 73.1249 83.9146C73.0112 83.6518 72.2969 83.3895 72.4815 83.8169C72.8883 84.7552 73.7832 85.9478 74.8444 86.1689C75.3386 86.2724 75.8529 86.0849 76.0369 85.5815C76.2427 85.0163 76.0729 84.3975 75.8912 83.8495C75.7598 83.4529 74.5626 81.3814 75.6541 81.5883C76.3901 81.7272 77.6827 82.6655 77.6404 83.5072C77.6261 83.8072 78.305 84.2038 78.3198 83.8918Z" fill="#FFD414"/>
<path d="M77.8547 81.5963C76.3707 83.1809 74.9158 84.8106 73.1261 86.0609C72.9701 86.1689 73.2552 86.4432 73.3866 86.3524C75.1952 85.0889 76.6678 83.4466 78.169 81.8443C78.2827 81.7226 77.9736 81.4689 77.8547 81.5963Z" fill="#FFD414"/>
<path d="M76.9421 81.0123C75.4958 82.5535 74.0421 84.0866 72.4192 85.4443C72.3061 85.5398 72.6049 85.7998 72.7323 85.6941C74.3546 84.3352 75.8084 82.8026 77.2541 81.2614C77.361 81.1472 77.053 80.8934 76.9421 81.0123Z" fill="#FFD414"/>
<path d="M97.3577 81.0077L83.857 85.6854L84.5553 87.2712C84.5553 87.2712 91.5754 93.7272 101.052 83.9757L101.363 81.9723L97.3577 81.0077Z" fill="#FFD414"/>
<path d="M97.3577 81.0077L83.857 85.6854L84.5553 87.2712C84.5553 87.2712 91.5754 93.7272 101.052 83.9757L101.363 81.9723L97.3577 81.0077Z" fill="#F5A80F"/>
<path d="M101.361 80.4248C102.093 83.1391 98.7263 86.4066 93.8422 87.7226C88.9576 89.0392 84.4056 87.906 83.6741 85.1917C82.9427 82.4768 86.309 79.2088 91.1931 77.8934C96.0771 76.5768 100.63 77.7105 101.361 80.4248Z" fill="#FFD414"/>
<path d="M90.2731 87.6215C87.3907 87.6215 85.317 86.5677 84.8599 84.8723C84.2147 82.4768 87.1245 79.602 91.3462 78.4642C92.5028 78.1522 93.6514 77.9939 94.7605 77.9939C97.6428 77.9939 99.7172 79.0482 100.174 80.7448C100.819 83.1397 97.9091 86.014 93.6879 87.1523C92.5314 87.4638 91.3828 87.6215 90.2731 87.6215ZM94.7611 78.4065C93.6885 78.4065 92.5754 78.5597 91.4542 78.862C87.4525 79.9408 84.673 82.5889 85.2593 84.7649C85.6587 86.2495 87.6273 87.2083 90.2736 87.2083C91.3468 87.2083 92.4594 87.0552 93.5817 86.7535C97.5834 85.6746 100.363 83.0271 99.7772 80.8511C99.376 79.3671 97.4074 78.4065 94.7611 78.4065Z" fill="#F5A80F"/>
<path d="M98.3954 81.2237C98.8817 83.0277 96.644 85.1992 93.3977 86.0746C90.1519 86.9495 87.1256 86.1957 86.6399 84.3923C86.153 82.5888 88.3908 80.4168 91.6365 79.542C94.8834 78.6665 97.9097 79.4197 98.3954 81.2237Z" fill="#F5A80F"/>
<path d="M94.4732 84.7637C95.1983 84.0249 94.9983 82.7271 94.7623 81.826C94.6229 81.2968 94.0555 79.8128 93.2663 80.3694C92.8749 80.646 92.74 81.2443 92.6052 81.6717C92.4012 82.3174 92.1897 83.0488 91.7069 83.5489C91.2143 84.0586 90.5926 83.8197 90.4497 83.1689C90.3234 82.5883 90.3874 81.8968 90.572 81.3334C90.6611 81.0614 90.3011 80.3911 90.1554 80.8334C89.8371 81.8054 89.7154 83.2911 90.3628 84.1609C90.664 84.5666 91.1731 84.7671 91.6452 84.5129C92.1737 84.2271 92.4577 83.6511 92.6857 83.1209C92.8503 82.7368 93.3292 80.3923 94.0086 81.2723C94.4658 81.8643 94.8109 83.4249 94.2206 84.026C94.0103 84.2397 94.2543 84.9872 94.4732 84.7637Z" fill="#FFD414"/>
<path d="M95.6486 82.7374C93.4863 82.9386 91.3166 83.1917 89.1474 82.9397C88.9588 82.918 88.9908 83.3123 89.1491 83.3306C91.3406 83.5854 93.532 83.334 95.7183 83.1317C95.8846 83.1157 95.8218 82.7208 95.6486 82.7374Z" fill="#FFD414"/>
<path d="M95.3526 81.6951C93.248 81.8888 91.1428 82.0711 89.0279 82.01C88.8799 82.0054 88.9314 82.3985 89.0971 82.4037C91.2125 82.4637 93.3171 82.2825 95.4211 82.0882C95.576 82.074 95.5149 81.6802 95.3526 81.6951Z" fill="#FFD414"/>
<path d="M86.3193 80.578L76.8398 91.2695L78.2255 92.3095C78.2255 92.3095 87.5079 94.4998 90.9942 81.3568L90.2833 79.4585L86.3193 80.578Z" fill="#FFD414"/>
<path d="M86.3193 80.578L76.8398 91.2695L78.2255 92.3095C78.2255 92.3095 87.5079 94.4998 90.9942 81.3568L90.2833 79.4585L86.3193 80.578Z" fill="#F5A80F"/>
<path d="M89.5245 78.1094C91.4914 80.1174 90.1571 84.6151 86.5433 88.1546C82.9296 91.6952 78.4055 92.9364 76.4386 90.9283C74.4712 88.9198 75.8055 84.422 79.4198 80.8825C83.033 77.3425 87.5576 76.1008 89.5245 78.1094Z" fill="#FFD414"/>
<path d="M79.6581 90.9409C78.685 90.9409 77.8752 90.6392 77.3164 90.0689C75.5804 88.2957 76.7095 84.3648 79.833 81.3048C81.8524 79.3259 84.3319 78.0974 86.3039 78.0974C87.2776 78.0974 88.0879 78.3985 88.6468 78.9694C90.3822 80.7414 89.2531 84.6728 86.1302 87.7329C84.109 89.7118 81.6296 90.9409 79.6581 90.9409ZM86.3039 78.5099C84.4359 78.5099 82.0673 79.6939 80.1221 81.6002C77.161 84.5008 76.0347 88.17 77.6118 89.7809C78.0907 90.27 78.7987 90.5289 79.6581 90.5289C81.5256 90.5289 83.8947 89.3449 85.841 87.4386C88.8016 84.538 89.9279 80.8682 88.3519 79.2585C87.8725 78.7682 87.1639 78.5099 86.3039 78.5099Z" fill="#F5A80F"/>
<path d="M87.3296 80.2579C88.6365 81.5934 87.7496 84.582 85.349 86.9352C82.9473 89.2877 79.9398 90.1129 78.633 88.778C77.3255 87.4437 78.213 84.4546 80.6141 82.102C83.0159 79.7494 86.0228 78.9236 87.3296 80.2579Z" fill="#F5A80F"/>
<path d="M85.6445 85.2654C85.9148 84.2666 85.105 83.2328 84.4576 82.5631C84.077 82.1694 82.8559 81.154 82.4399 82.026C82.2342 82.4585 82.4096 83.046 82.501 83.4854C82.6393 84.1483 82.8136 84.89 82.6376 85.562C82.4582 86.2471 81.7987 86.3443 81.3559 85.8471C80.961 85.402 80.6781 84.7683 80.5633 84.1866C80.5073 83.9054 79.8656 83.498 79.9547 83.954C80.1536 84.9574 80.7753 86.3123 81.7656 86.7534C82.2267 86.9597 82.7685 86.8854 83.0559 86.4323C83.3765 85.9237 83.3422 85.2831 83.281 84.7088C83.2365 84.2934 82.5056 82.0151 83.529 82.4483C84.2182 82.7408 85.2828 83.9323 85.0628 84.7454C84.9839 85.0357 85.5633 85.5677 85.6445 85.2654Z" fill="#FFD414"/>
<path d="M85.6765 82.9237C83.8902 84.158 82.1227 85.4414 80.1079 86.2837C79.9324 86.3569 80.1536 86.6855 80.3004 86.6237C82.3365 85.7729 84.1239 84.4797 85.9302 83.2329C86.0674 83.1374 85.8194 82.8243 85.6765 82.9237Z" fill="#FFD414"/>
<path d="M84.9085 82.1597C83.169 83.3591 81.4221 84.5494 79.5484 85.5317C79.4175 85.6003 79.6547 85.9174 79.8015 85.8409C81.6747 84.8574 83.421 83.6683 85.1605 82.4682C85.2885 82.3802 85.0422 82.0665 84.9085 82.1597Z" fill="#FFD414"/>
<path d="M110.019 80.6934L96.2394 84.4723L96.832 86.1009C96.832 86.1009 103.411 93.005 113.51 83.8986L113.952 81.9197L110.019 80.6934Z" fill="#FFD414"/>
<path d="M110.019 80.6934L96.2394 84.4723L96.832 86.1009C96.832 86.1009 103.411 93.005 113.51 83.8986L113.952 81.9197L110.019 80.6934Z" fill="#F5A80F"/>
<path d="M114.052 80.3763C114.604 83.1323 111.029 86.1712 106.069 87.1632C101.108 88.1552 96.64 86.7243 96.0891 83.9689C95.5382 81.2111 99.112 78.1722 104.073 77.1808C109.033 76.1888 113.501 77.6185 114.052 80.3763Z" fill="#FFD414"/>
<path d="M103.299 86.8529C100.081 86.8529 97.6675 85.5969 97.2938 83.7272C96.808 81.2946 99.9006 78.618 104.188 77.7602C105.082 77.5814 105.975 77.4905 106.843 77.4905C110.06 77.4905 112.473 78.7471 112.848 80.6174C113.333 83.0494 110.24 85.7266 105.953 86.5843C105.059 86.762 104.166 86.8529 103.299 86.8529ZM106.843 77.9031C106.002 77.9031 105.137 77.9905 104.269 78.1648C100.205 78.978 97.2577 81.4369 97.6989 83.6472C98.032 85.318 100.283 86.4409 103.299 86.4409C104.139 86.4409 105.005 86.3529 105.872 86.1798C109.937 85.3666 112.884 82.9071 112.443 80.6986C112.108 79.0265 109.858 77.9031 106.843 77.9031Z" fill="#F5A80F"/>
<path d="M111.04 80.978C111.406 82.81 109.03 84.8294 105.734 85.4894C102.438 86.1483 99.468 85.1974 99.1017 83.3654C98.7354 81.5334 101.111 79.5151 104.407 78.8551C107.704 78.1951 110.674 79.1454 111.04 80.978Z" fill="#F5A80F"/>
<path d="M106.893 84.2517C107.665 83.5626 107.551 82.2551 107.374 81.3402C107.27 80.8025 106.802 79.2848 105.978 79.7882C105.569 80.0385 105.395 80.6265 105.232 81.0443C104.986 81.6751 104.727 82.3905 104.212 82.858C103.687 83.334 103.082 83.0557 102.983 82.3968C102.896 81.8088 103.005 81.1231 103.226 80.5734C103.333 80.3077 103.018 79.6151 102.844 80.0465C102.462 80.9957 102.243 82.47 102.832 83.3803C103.105 83.8054 103.6 84.0386 104.088 83.8163C104.634 83.5648 104.956 83.0094 105.218 82.4951C105.408 82.1231 106.04 79.8145 106.661 80.7374C107.078 81.3585 107.319 82.938 106.691 83.4991C106.466 83.6986 106.66 84.4609 106.893 84.2517Z" fill="#FFD414"/>
<path d="M108.2 82.3071C106.029 82.366 103.848 82.4757 101.699 82.0808C101.513 82.046 101.518 82.442 101.675 82.4711C103.846 82.8694 106.049 82.7626 108.243 82.7054C108.41 82.7003 108.373 82.3026 108.2 82.3071Z" fill="#FFD414"/>
<path d="M107.973 81.2477C105.86 81.3026 103.747 81.346 101.641 81.1454C101.494 81.1317 101.519 81.5271 101.683 81.5437C103.79 81.7426 105.903 81.6997 108.014 81.6443C108.171 81.6403 108.136 81.2431 107.973 81.2477Z" fill="#FFD414"/>
<path d="M111.472 48.6645L102.518 59.8006L103.953 60.7732C103.953 60.7732 113.33 62.5138 116.178 49.2171L115.377 47.3553L111.472 48.6645Z" fill="#FFD414"/>
<path d="M111.472 48.6645L102.518 59.8006L103.953 60.7732C103.953 60.7732 113.33 62.5138 116.178 49.2171L115.377 47.3553L111.472 48.6645Z" fill="#F5A80F"/>
<path d="M114.554 46.0445C116.616 47.9548 115.499 52.5114 112.061 56.2212C108.621 59.932 104.163 61.3898 102.102 59.4795C100.039 57.5675 101.155 53.0108 104.594 49.3011C108.034 45.5908 112.493 44.1325 114.554 46.0445Z" fill="#FFD414"/>
<path d="M105.097 59.3417C104.223 59.3417 103.476 59.0772 102.937 58.5777C101.118 56.8909 102.056 52.9097 105.028 49.7028C107.041 47.5308 109.543 46.181 111.559 46.181C112.433 46.181 113.18 46.445 113.719 46.9445C115.538 48.6314 114.599 52.6125 111.628 55.82C109.613 57.9926 107.111 59.3417 105.097 59.3417ZM111.559 46.5942C109.654 46.5942 107.268 47.8925 105.331 49.9834C102.513 53.0234 101.566 56.7434 103.218 58.2755C103.685 58.7086 104.317 58.9292 105.097 58.9292C107 58.9292 109.386 57.6303 111.325 55.5394C114.142 52.4994 115.09 48.7794 113.438 47.2473C112.97 46.8142 112.338 46.5942 111.559 46.5942Z" fill="#F5A80F"/>
<path d="M112.466 48.2965C113.836 49.5674 113.093 52.5948 110.809 55.0611C108.524 57.5263 105.559 58.496 104.19 57.2257C102.819 55.956 103.562 52.928 105.846 50.4622C108.132 47.9959 111.096 47.0262 112.466 48.2965Z" fill="#F5A80F"/>
<path d="M111.024 53.3789C111.245 52.3686 110.387 51.3754 109.708 50.7371C109.309 50.3623 108.04 49.4068 107.667 50.2977C107.482 50.74 107.686 51.3183 107.798 51.752C107.969 52.4074 108.178 53.1394 108.034 53.82C107.888 54.5132 107.234 54.6417 106.768 54.1663C106.352 53.7406 106.04 53.1212 105.896 52.5463C105.828 52.268 105.166 51.892 105.277 52.3434C105.525 53.3354 106.211 54.6595 107.221 55.052C107.691 55.2355 108.229 55.1355 108.494 54.6697C108.789 54.1457 108.724 53.5074 108.636 52.9366C108.571 52.524 107.732 50.2834 108.774 50.6674C109.477 50.9263 110.597 52.0651 110.417 52.888C110.353 53.1812 110.957 53.6852 111.024 53.3789Z" fill="#FFD414"/>
<path d="M110.943 51.0383C109.218 52.3572 107.515 53.7246 105.543 54.6629C105.371 54.744 105.608 55.0612 105.752 54.9932C107.744 54.044 109.468 52.6669 111.212 51.3349C111.344 51.2331 111.081 50.932 110.943 51.0383Z" fill="#FFD414"/>
<path d="M110.138 50.312C108.458 51.5943 106.772 52.8669 104.947 53.9389C104.82 54.0132 105.072 54.3195 105.215 54.236C107.039 53.1629 108.726 51.8909 110.405 50.6086C110.529 50.5137 110.268 50.2131 110.138 50.312Z" fill="#FFD414"/>
<path d="M113.381 65.2926L101.689 73.5041L102.796 74.8362C102.796 74.8362 111.321 79.1122 117.75 67.1304L117.497 65.1183L113.381 65.2926Z" fill="#FFD414"/>
<path d="M113.381 65.2926L101.689 73.5041L102.796 74.8362C102.796 74.8362 111.321 79.1122 117.75 67.1304L117.497 65.1183L113.381 65.2926Z" fill="#F5A80F"/>
<path d="M117.071 63.6315C118.52 66.0396 116.182 70.107 111.849 72.7156C107.515 75.3254 102.826 75.4877 101.377 73.0802C99.9269 70.671 102.265 66.6036 106.598 63.995C110.932 61.3847 115.62 61.2224 117.071 63.6315Z" fill="#FFD414"/>
<path d="M105.861 73.9836C104.245 73.9836 103.027 73.4373 102.43 72.4453C101.151 70.3201 103.157 66.7555 106.904 64.5001C108.776 63.3732 110.846 62.7263 112.586 62.7263C114.202 62.7263 115.421 63.2732 116.018 64.2647C117.297 66.3904 115.29 69.955 111.545 72.2104C109.672 73.3367 107.6 73.9836 105.861 73.9836ZM112.585 63.1389C110.919 63.1389 108.925 63.7641 107.116 64.8538C103.565 66.9921 101.622 70.3024 102.784 72.2327C103.303 73.0956 104.395 73.5705 105.861 73.5705C107.528 73.5705 109.521 72.9453 111.332 71.8556C114.882 69.7173 116.826 66.407 115.665 64.4766C115.145 63.6144 114.051 63.1389 112.585 63.1389Z" fill="#F5A80F"/>
<path d="M114.439 65.2149C115.402 66.8155 113.849 69.5184 110.969 71.2533C108.089 72.987 104.972 73.0956 104.009 71.4944C103.045 69.8933 104.599 67.1915 107.478 65.4567C110.359 63.7229 113.476 63.6138 114.439 65.2149Z" fill="#F5A80F"/>
<path d="M111.642 69.6967C112.136 68.7875 111.586 67.595 111.111 66.7938C110.832 66.3229 109.878 65.0526 109.272 65.8046C108.972 66.1784 109.007 66.7909 108.995 67.239C108.976 67.9161 108.974 68.6772 108.648 69.291C108.314 69.9161 107.651 69.8584 107.335 69.2715C107.054 68.7475 106.925 68.0652 106.947 67.4732C106.958 67.1875 106.428 66.6418 106.409 67.107C106.371 68.1287 106.662 69.591 107.524 70.2487C107.925 70.5561 108.47 70.6093 108.853 70.235C109.283 69.8144 109.398 69.1824 109.471 68.6098C109.524 68.1955 109.338 65.8098 110.234 66.4681C110.837 66.9121 111.597 68.3167 111.195 69.0578C111.053 69.3207 111.493 69.9721 111.642 69.6967Z" fill="#FFD414"/>
<path d="M112.214 67.4258C110.19 68.2138 108.175 69.0544 106.02 69.4087C105.833 69.4395 105.972 69.8098 106.129 69.7841C108.306 69.4258 110.344 68.5813 112.39 67.7852C112.545 67.7241 112.376 67.3624 112.214 67.4258Z" fill="#FFD414"/>
<path d="M111.644 66.5052C109.673 67.2704 107.7 68.0247 105.649 68.5475C105.506 68.5847 105.663 68.9475 105.824 68.907C107.874 68.383 109.848 67.6292 111.817 66.8641C111.962 66.8069 111.795 66.4452 111.644 66.5052Z" fill="#FFD414"/>
<path d="M91.6622 61.4875L85.633 74.4419L87.2576 75.0425C87.2576 75.0425 96.7794 74.4899 96.3646 60.8977L95.1406 59.2806L91.6622 61.4875Z" fill="#FFD414"/>
<path d="M91.6622 61.4875L85.633 74.4419L87.2576 75.0425C87.2576 75.0425 96.7794 74.4899 96.3646 60.8977L95.1406 59.2806L91.6622 61.4875Z" fill="#F5A80F"/>
<path d="M94.0285 58.2063C96.4874 59.5686 96.4937 64.2595 94.0417 68.6841C91.5902 73.1099 87.6096 75.5916 85.1513 74.2299C82.6913 72.8665 82.6856 68.1755 85.137 63.7515C87.5885 59.3257 91.5696 56.8434 94.0285 58.2063Z" fill="#FFD414"/>
<path d="M87.1182 73.4956C86.6165 73.4956 86.1548 73.3807 85.7468 73.1544C83.577 71.9516 83.5347 67.8612 85.6536 64.0366C87.3428 60.9869 89.9177 58.9389 92.0617 58.9389C92.564 58.9389 93.0251 59.0537 93.4331 59.2794C95.6023 60.4823 95.644 64.5732 93.5257 68.3972C91.8354 71.447 89.2605 73.4956 87.1182 73.4956ZM92.0617 59.3526C90.0948 59.3526 87.6079 61.3612 86.0148 64.2366C84.0062 67.8624 83.9753 71.7013 85.9462 72.7939C86.2925 72.9853 86.6862 73.083 87.1176 73.083C89.0834 73.083 91.5697 71.0744 93.164 68.199C95.1726 64.5726 95.2029 60.7337 93.2325 59.6417C92.8868 59.4497 92.4931 59.3526 92.0617 59.3526Z" fill="#F5A80F"/>
<path d="M92.5394 60.8926C94.1737 61.7983 94.1777 64.9161 92.5491 67.8572C90.9194 70.7973 88.2736 72.4476 86.6399 71.5419C85.005 70.6361 85.0016 67.5189 86.6302 64.5778C88.2593 61.6377 90.9056 59.9869 92.5394 60.8926Z" fill="#F5A80F"/>
<path d="M92.3548 66.1721C92.3285 65.1378 91.2571 64.3783 90.4456 63.9218C89.9679 63.6532 88.5079 63.0286 88.3582 63.9835C88.2845 64.4572 88.621 64.9692 88.8342 65.3641C89.1559 65.9606 89.5348 66.6206 89.5588 67.3155C89.5822 68.0229 88.9782 68.3052 88.4113 67.9549C87.9062 67.6418 87.4542 67.1144 87.177 66.5904C87.0439 66.3366 86.3119 66.1292 86.5279 66.5412C87.005 67.4458 87.9885 68.5664 89.0628 68.7064C89.5639 68.7721 90.0622 68.5458 90.2079 68.0304C90.3696 67.4509 90.1536 66.8464 89.9308 66.3143C89.7696 65.9286 88.4182 63.9543 89.5228 64.0772C90.2668 64.1606 91.6274 64.9978 91.6491 65.8406C91.6565 66.1406 92.3634 66.4852 92.3548 66.1721Z" fill="#FFD414"/>
<path d="M91.7165 63.9183C90.3571 65.612 89.0308 67.3469 87.3405 68.7303C87.1936 68.8503 87.4988 69.1018 87.6228 69.0018C89.3302 67.6035 90.6742 65.8543 92.0491 64.1429C92.1525 64.012 91.8257 63.7829 91.7165 63.9183Z" fill="#FFD414"/>
<path d="M90.7622 63.4063C89.4371 65.0526 88.1039 66.6926 86.5885 68.1692C86.4833 68.2727 86.8005 68.5087 86.9199 68.3932C88.4342 66.9155 89.7674 65.2766 91.0919 63.6303C91.1891 63.5086 90.8634 63.2789 90.7622 63.4063Z" fill="#FFD414"/>
<path d="M103.612 90.5941L89.8411 86.7826L89.5165 88.4843C89.5165 88.4843 91.6314 97.7844 104.969 95.1353L106.361 93.6615L103.612 90.5941Z" fill="#FFD414"/>
<path d="M103.612 90.5941L89.8411 86.7826L89.5165 88.4843C89.5165 88.4843 91.6314 97.7844 104.969 95.1353L106.361 93.6615L103.612 90.5941Z" fill="#F5A80F"/>
<path d="M107.239 92.3867C106.301 95.0364 101.674 95.8158 96.9063 94.1267C92.1371 92.4381 89.033 88.9209 89.9708 86.2717C90.9096 83.6209 95.536 82.8414 100.304 84.5306C105.073 86.2192 108.178 89.7369 107.239 92.3867Z" fill="#FFD414"/>
<path d="M101.303 94.3341C99.9674 94.3341 98.5148 94.0701 97.1034 93.5707C95.1257 92.8695 93.4154 91.7804 92.2879 90.5032C91.1319 89.1935 90.7199 87.8358 91.1291 86.6821C91.6525 85.2055 93.4388 84.3243 95.9068 84.3243C97.2428 84.3243 98.6948 84.5889 100.106 85.0883C104.228 86.5472 106.908 89.6375 106.081 91.977C105.558 93.453 103.772 94.3341 101.303 94.3341ZM95.9074 84.7369C93.6211 84.7369 91.9805 85.5152 91.5182 86.8198C91.1616 87.8261 91.5445 89.0369 92.5976 90.2295C93.6794 91.4552 95.3285 92.5038 97.2405 93.181C98.6086 93.6656 100.013 93.921 101.302 93.921C103.588 93.921 105.229 93.1427 105.691 91.8381C106.443 89.7135 103.876 86.8592 99.9686 85.4763C98.6011 84.9929 97.1971 84.7369 95.9074 84.7369Z" fill="#F5A80F"/>
<path d="M104.343 91.361C103.719 93.1221 100.645 93.6398 97.476 92.5187C94.3068 91.3964 92.2433 89.0575 92.8674 87.2975C93.4908 85.5358 96.5651 85.0186 99.7343 86.1403C102.903 87.2621 104.968 89.5998 104.343 91.361Z" fill="#F5A80F"/>
<path d="M99.1057 92.0484C100.122 91.8524 100.694 90.6707 101.01 89.7941C101.197 89.2798 101.571 87.7363 100.606 87.7466C100.127 87.7518 99.6766 88.1678 99.3217 88.4432C98.7869 88.8592 98.1977 89.3409 97.5166 89.4786C96.8217 89.6186 96.4451 89.0695 96.6966 88.4523C96.9229 87.9026 97.3674 87.3695 97.8389 87.0106C98.0669 86.8375 98.1509 86.0809 97.7806 86.3626C96.9674 86.9826 96.0234 88.1369 96.0634 89.2198C96.0806 89.7249 96.3857 90.1792 96.9189 90.2375C97.5166 90.3015 98.0772 89.9889 98.5663 89.6815C98.9194 89.4586 100.645 87.8003 100.705 88.9101C100.745 89.6575 100.144 91.1375 99.3166 91.2975C99.0217 91.3552 98.7983 92.1095 99.1057 92.0484Z" fill="#FFD414"/>
<path d="M101.223 91.0484C99.3286 89.9866 97.3988 88.9638 95.756 87.5249C95.6125 87.3986 95.4154 87.742 95.5354 87.8472C97.1954 89.3015 99.1423 90.3381 101.057 91.4124C101.203 91.4935 101.375 91.1329 101.223 91.0484Z" fill="#FFD414"/>
<path d="M101.571 90.0221C99.7291 88.9872 97.8914 87.9426 96.1857 86.6912C96.0662 86.6043 95.8857 86.9569 96.0188 87.0552C97.7263 88.3049 99.5629 89.3506 101.405 90.3844C101.541 90.4604 101.714 90.1009 101.571 90.0221Z" fill="#FFD414"/>
</svg>
