<svg width="95" height="100" viewBox="0 0 95 100" fill="none" xmlns="http://www.w3.org/2000/svg">
<path d="M91.4095 31.993C91.2881 31.9285 91.2628 32.207 91.3411 32.2666C92.7879 33.3753 94.6186 34.4459 93.5314 36.6677C93.0946 37.5613 92.2418 38.205 91.3025 38.5541C91.191 36.9937 90.549 35.6125 89.0713 35.4244C87.6824 35.2468 86.4932 36.0058 86.7238 37.5166C86.9764 39.1697 88.3901 40.36 90.0542 40.3407C90.2506 40.339 90.4442 40.3126 90.6345 40.2751C90.4574 41.0627 90.1287 41.7936 89.71 42.2878C89.3096 42.7594 88.608 42.9916 87.8424 43.0192C87.6543 42.3838 87.4441 41.7511 87.2042 41.1245C80.7264 24.2377 57.3154 17.5144 34.9144 26.1076C12.5134 34.7002 -0.394228 55.3565 6.08415 72.2428C8.06158 77.3973 11.6182 81.6021 16.2405 84.7174L18.5709 86.1449C22.3112 88.2244 26.6125 89.6679 31.2558 90.4114L34.4108 90.8042C41.9582 91.4799 50.232 90.3816 58.3739 87.2591C68.6202 83.3274 76.878 76.8728 82.2046 69.4098L84.0359 66.616C88.3708 59.3583 89.9864 51.3674 88.09 43.9194C88.9334 43.8642 89.7277 43.536 90.2666 42.8664C90.7443 42.2712 91.1105 41.2216 91.255 40.0947C92.7884 39.4973 94.0223 37.8911 94.3461 36.3935C94.7824 34.3769 92.9793 32.8353 91.4095 31.993ZM90.0173 38.8409C89.0581 38.916 88.1612 38.3462 87.6449 37.5767C86.6543 36.0996 89.362 35.9661 90.0989 36.8183C90.522 37.3086 90.7272 37.9893 90.7702 38.7174C90.5187 38.7797 90.266 38.8211 90.0173 38.8409Z" fill="#FFB0D0"/>
<path d="M42.5093 75.3531C41.7872 77.8728 40.6477 79.2225 39.4772 79.9109L33.2371 67.5868C38.1429 64.3379 36.4148 56.6836 36.4148 56.6836C36.4148 56.6836 44.5661 68.1924 42.5093 75.3531Z" fill="white"/>
<path d="M36.9917 80.8816C35.8373 80.8816 34.9895 80.5319 34.9349 80.5093L35.1715 79.9467C35.1903 79.955 37.0999 80.736 38.9868 79.8309C40.464 79.1232 41.55 77.5881 42.2164 75.2687C43.8347 69.6326 38.8864 61.0836 36.9272 58.0096C37.1346 59.9545 37.1677 63.531 35.1836 66.1681C33.7528 68.0705 31.5294 69.1229 28.5762 69.2983L28.5403 68.6899C31.3054 68.5267 33.3761 67.5553 34.6944 65.804C37.326 62.3097 36.1302 56.8071 36.118 56.7514L35.7849 55.2677L36.6641 56.5087C37 56.9836 44.8756 68.2189 42.8021 75.4375C42.0845 77.9351 40.887 79.5992 39.2428 80.3841C38.4518 80.7614 37.6691 80.8816 36.9917 80.8816Z" fill="#111C70"/>
<path d="M40.9653 78.4828L34.1665 66.8007L34.4302 66.6474L41.229 78.33L40.9653 78.4828Z" fill="#001B42"/>
<path d="M36.0957 64.0888L35.825 64.228L42.0696 76.3758L42.3404 76.2366L36.0957 64.0888Z" fill="#001B42"/>
<path d="M36.6434 62.0132L36.3874 62.178L42.7097 71.9984L42.9657 71.8336L36.6434 62.0132Z" fill="#001B42"/>
<path d="M40.9596 64.8328L36.0228 73.2788L36.2852 73.4322L41.222 64.9861L40.9596 64.8328Z" fill="#001B42"/>
<path d="M38.4418 64.3848C35.8306 71.4247 25.2402 73.9891 14.786 70.1114C4.33289 66.2343 -2.02469 57.3847 0.585965 50.3442C3.19717 43.3049 13.7882 40.7411 24.2413 44.6177C34.6949 48.4942 41.0525 57.345 38.4418 64.3848Z" fill="#FF6C47"/>
<path d="M13.1109 53.6437C13.1109 57.3465 11.9845 60.3466 10.5951 60.3466C9.20508 60.3466 8.07819 57.346 8.07819 53.6437C8.07819 49.9415 9.20508 46.9409 10.5951 46.9409C11.9845 46.9409 13.1109 49.9415 13.1109 53.6437Z" fill="#111C70"/>
<path d="M26.5127 56.7283C26.5127 61.7141 24.8414 65.755 22.7801 65.755C20.7183 65.755 19.0475 61.7141 19.0475 56.7283C19.0475 51.7436 20.7183 47.7021 22.7801 47.7021C24.8414 47.7021 26.5127 51.7436 26.5127 56.7283Z" fill="#111C70"/>
<path d="M33.2415 36.0483L36.9487 38.7395C36.9487 38.7395 46.6985 27.4148 69.3985 32.5942L68.1801 30.6642C68.1801 30.6642 50.863 23.7077 33.2415 36.0483Z" fill="#111C70"/>
<path d="M53.6066 27.839C53.6066 28.1623 53.5884 28.4789 53.5542 28.7927C53.4505 29.7806 53.1857 30.7183 52.7869 31.5843C47.1834 32.3339 43.1678 34.1922 40.5809 35.8282C39.4104 35.2347 38.3928 34.3902 37.5919 33.3698C36.3911 31.8457 35.6784 29.9262 35.6784 27.8396C35.6784 22.888 39.6912 18.8758 44.6428 18.8758C49.5938 18.8752 53.6066 22.8874 53.6066 27.839Z" fill="#FFD629"/>
<path d="M41.6118 35.3963C41.4546 35.265 37.7656 32.1127 37.4601 27.5014C37.278 24.7545 38.3431 22.0926 40.6256 19.59L41.3008 20.205C39.192 22.5173 38.2069 24.9509 38.3713 27.4402C38.6515 31.6675 42.164 34.6665 42.1998 34.6958L41.6118 35.3963Z" fill="#FFA515"/>
<path d="M42.6769 34.7245C42.6146 34.639 36.4958 26.176 41.8771 21.4341C43.9549 19.6028 46.4966 19.3066 48.676 20.6403C51.2982 22.2471 53.4941 26.422 52.1184 31.7934L51.2326 31.5661C52.494 26.6449 50.5436 22.8572 48.1988 21.4197C46.3532 20.289 44.2693 20.5443 42.4811 22.1202C37.727 26.3084 43.3559 34.1051 43.4138 34.1828L42.6769 34.7245Z" fill="#FFA515"/>
<path d="M48.6859 27.9769C47.7405 27.1529 46.4487 26.8523 45.3571 26.2814C45.0405 26.1153 44.7553 25.8688 44.5181 25.604C44.49 25.5726 44.4679 25.5356 44.4475 25.4987C44.9373 25.1683 45.9197 25.3172 46.4862 25.4308C46.9848 25.5301 47.4719 25.6713 47.9335 25.8848C47.9683 25.9008 48.0014 25.9195 48.0356 25.9377L48.5392 23.6211C47.5469 23.1622 46.2402 23.0452 45.388 23.15C44.3527 23.278 43.5275 23.9796 43.1221 24.919C42.7062 25.8853 42.9958 26.8749 43.7713 27.545C44.5303 28.202 45.5546 28.4778 46.4663 28.8413C46.9319 29.0266 47.3908 29.2412 47.783 29.5528C47.6053 29.678 47.409 29.7602 47.2032 29.8363C46.3461 30.148 45.3549 29.9047 44.5429 29.5738C44.2787 29.4662 43.9947 29.3123 43.7773 29.1049L43.1204 30.8342C43.6852 31.3234 44.4696 31.5964 45.1822 31.7233C46.2341 31.9097 47.2617 31.7487 48.1409 31.1232C49.1548 30.4012 49.7527 28.9053 48.6859 27.9769Z" fill="#FFA515"/>
<path d="M45.3455 32.4525L46.2005 22.2421L47.2794 22.4837L46.0185 32.4613L45.3455 32.4525Z" fill="#FFA515"/>
<path d="M40.9637 8.96271C40.9637 13.9132 36.9509 17.926 32.0004 17.926C27.05 17.926 23.0372 13.9132 23.0372 8.96271C23.0372 4.01223 27.0494 0 32.0004 0C36.9515 0 40.9637 4.01278 40.9637 8.96271Z" fill="#FFD629"/>
<path d="M32.5338 17.8896C27.9446 17.2211 24.4828 13.2132 24.4828 8.56889C24.4828 5.43423 26.0356 2.51357 28.6363 0.757324L29.1482 1.51522C26.799 3.10213 25.3974 5.7376 25.3974 8.56889C25.3974 12.7631 28.5221 16.381 32.6662 16.9855L32.5338 17.8896Z" fill="#FFA515"/>
<path d="M32.9607 16.5464C29.3638 16.5464 26.4366 13.147 26.4366 8.96767C26.4366 4.78775 29.3633 1.38889 32.9607 1.38889C36.5582 1.38889 39.4849 4.78775 39.4849 8.96767C39.4849 13.147 36.5582 16.5464 32.9607 16.5464ZM32.9607 2.30285C29.8674 2.30285 27.3511 5.293 27.3511 8.96767C27.3511 12.6429 29.868 15.633 32.9607 15.633C36.054 15.633 38.5709 12.6429 38.5709 8.96767C38.5709 5.293 36.054 2.30285 32.9607 2.30285Z" fill="#FFA515"/>
<path d="M35.8555 8.90864C34.6199 8.30189 33.1648 8.34712 31.846 8.04926C31.4632 7.96266 31.0909 7.78119 30.7649 7.56718C30.7268 7.54291 30.6932 7.51037 30.6601 7.47562C31.0865 6.98747 32.1709 6.86722 32.8036 6.82861C33.3596 6.79276 33.9167 6.806 34.4671 6.90253C34.5085 6.9097 34.5488 6.91851 34.5901 6.92954L34.4704 4.32993C33.2878 4.12308 31.8697 4.36798 30.9949 4.71935C29.9337 5.14627 29.2552 6.12368 29.0903 7.23457C28.9215 8.37691 29.5084 9.34549 30.5194 9.8375C31.5101 10.319 32.6739 10.3235 33.744 10.4514C34.2901 10.5165 34.8361 10.6152 35.3403 10.8359C35.1881 11.0179 35.0027 11.1602 34.8064 11.2987C33.9839 11.8712 32.8648 11.8922 31.91 11.7703C31.5994 11.7311 31.2547 11.6478 30.9662 11.4906L30.7572 13.5094C31.4941 13.869 32.4026 13.9363 33.1941 13.8707C34.3629 13.7725 35.4076 13.3108 36.1633 12.3996C37.0359 11.3477 37.2493 9.59316 35.8555 8.90864Z" fill="#FFA515"/>
<path d="M33.5735 14.5982L31.6016 3.52737L32.8135 3.47884L34.2901 14.4179L33.5735 14.5982Z" fill="#FFA515"/>
<path d="M40.9637 8.96271C40.9637 13.9132 36.9509 17.926 32.0004 17.926C27.05 17.926 23.0372 13.9132 23.0372 8.96271C23.0372 4.01223 27.0494 0 32.0004 0C36.9515 0 40.9637 4.01278 40.9637 8.96271Z" fill="#FFD629"/>
<path d="M32.5338 17.8896C27.9446 17.2211 24.4828 13.2132 24.4828 8.56889C24.4828 5.43423 26.0356 2.51357 28.6363 0.757324L29.1482 1.51522C26.799 3.10213 25.3974 5.7376 25.3974 8.56889C25.3974 12.7631 28.5221 16.381 32.6662 16.9855L32.5338 17.8896Z" fill="#FFA515"/>
<path d="M32.9607 16.5464C29.3638 16.5464 26.4366 13.147 26.4366 8.96767C26.4366 4.78775 29.3633 1.38889 32.9607 1.38889C36.5582 1.38889 39.4849 4.78775 39.4849 8.96767C39.4849 13.147 36.5582 16.5464 32.9607 16.5464ZM32.9607 2.30285C29.8674 2.30285 27.3511 5.293 27.3511 8.96767C27.3511 12.6429 29.868 15.633 32.9607 15.633C36.054 15.633 38.5709 12.6429 38.5709 8.96767C38.5709 5.293 36.054 2.30285 32.9607 2.30285Z" fill="#FFA515"/>
<path d="M35.8555 8.90864C34.6199 8.30189 33.1648 8.34712 31.846 8.04926C31.4632 7.96266 31.0909 7.78119 30.7649 7.56718C30.7268 7.54291 30.6932 7.51037 30.6601 7.47562C31.0865 6.98747 32.1709 6.86722 32.8036 6.82861C33.3596 6.79276 33.9167 6.806 34.4671 6.90253C34.5085 6.9097 34.5488 6.91851 34.5901 6.92954L34.4704 4.32993C33.2878 4.12308 31.8697 4.36798 30.9949 4.71935C29.9337 5.14627 29.2552 6.12368 29.0903 7.23457C28.9215 8.37691 29.5084 9.34549 30.5194 9.8375C31.5101 10.319 32.6739 10.3235 33.744 10.4514C34.2901 10.5165 34.8361 10.6152 35.3403 10.8359C35.1881 11.0179 35.0027 11.1602 34.8064 11.2987C33.9839 11.8712 32.8648 11.8922 31.91 11.7703C31.5994 11.7311 31.2547 11.6478 30.9662 11.4906L30.7572 13.5094C31.4941 13.869 32.4026 13.9363 33.1941 13.8707C34.3629 13.7725 35.4076 13.3108 36.1633 12.3996C37.0359 11.3477 37.2493 9.59316 35.8555 8.90864Z" fill="#FFA515"/>
<path d="M33.5735 14.5982L31.6016 3.52737L32.8135 3.47884L34.2901 14.4179L33.5735 14.5982Z" fill="#FFA515"/>
<path d="M58.3529 21.3546C60.5168 25.8076 65.8799 27.6626 70.3317 25.4993C74.7847 23.3354 76.6402 17.9723 74.4769 13.5199C72.313 9.06751 66.95 7.21088 62.497 9.37475C58.0452 11.5386 56.1891 16.9022 58.3529 21.3546Z" fill="#FFD629"/>
<path d="M69.8358 25.6995L69.3223 24.9433C72.7851 22.5891 74.0141 17.9685 72.1812 14.1967C70.944 11.6512 68.5308 9.89106 65.7249 9.49172L65.8539 8.58601C68.9605 9.03004 71.6329 10.9777 73.003 13.7963C75.0329 17.9745 73.6715 23.0916 69.8358 25.6995Z" fill="#FFA515"/>
<path d="M66.3448 25.2533C63.6393 25.2533 61.0248 23.4705 59.6845 20.7126C58.8063 18.904 58.5807 16.9083 59.0507 15.0919C59.5273 13.2491 60.6602 11.8122 62.2405 11.0439C63.0254 10.6627 63.8732 10.4691 64.7607 10.4691C67.4662 10.4691 70.0807 12.2513 71.4205 15.0092C73.2474 18.7677 72.1001 23.1059 68.865 24.6774C68.0807 25.0596 67.2318 25.2533 66.3448 25.2533ZM64.7607 11.3825C64.0127 11.3825 63.2995 11.5458 62.6393 11.8657C61.3045 12.5149 60.3436 13.7411 59.9349 15.3209C59.5195 16.9265 59.722 18.6999 60.5063 20.3133C61.695 22.7595 63.9863 24.3393 66.3443 24.3393C67.0923 24.3393 67.8054 24.1766 68.4657 23.8555C71.2484 22.5047 72.2043 18.7153 70.5987 15.4097C69.4106 12.9634 67.1182 11.3825 64.7607 11.3825Z" fill="#FFA515"/>
<path d="M68.3841 18.6127C67.3465 17.7076 65.9278 17.3794 64.7303 16.7517C64.3828 16.5697 64.0696 16.2977 63.8087 16.0076C63.7778 15.974 63.7535 15.9337 63.7309 15.8929C64.2681 15.5294 65.3465 15.6932 65.9687 15.8179C66.5158 15.926 67.0503 16.0821 67.5572 16.3159C67.5958 16.333 67.6322 16.3529 67.6692 16.3739L68.2219 13.8305C67.1319 13.3269 65.6978 13.1989 64.7629 13.3137C63.6272 13.4538 62.7204 14.2243 62.2758 15.2547C61.8196 16.3165 62.1373 17.402 62.9884 18.1384C63.8219 18.8582 64.946 19.1605 65.9466 19.5598C66.4579 19.7634 66.961 19.9983 67.3906 20.3409C67.1965 20.4793 66.9808 20.5681 66.7552 20.6514C65.8142 20.9945 64.7276 20.7275 63.8357 20.364C63.5455 20.2466 63.2333 20.0767 62.9956 19.8505L62.2747 21.748C62.8941 22.2858 63.7551 22.5847 64.5367 22.7232C65.6918 22.9284 66.8198 22.7519 67.785 22.0657C68.8981 21.2736 69.5545 19.631 68.3841 18.6127Z" fill="#FFA515"/>
<path d="M64.7171 23.5252L65.6559 12.3175L66.8391 12.5839L65.4557 23.5346L64.7171 23.5252Z" fill="#FFA515"/>
<path d="M47.5012 40.3059L38.6176 40.7697C38.6176 40.7697 42.1788 49.6635 43.5867 49.308C44.9944 48.9533 47.5012 40.3059 47.5012 40.3059Z" fill="#FF6C47"/>
<path d="M24.368 34.5634L18.0923 29.4328C18.0923 29.4328 13.0542 37.5964 13.9277 39.0111C14.8022 40.4259 24.368 34.5634 24.368 34.5634Z" fill="#FF6C47"/>
<path d="M33.6284 45.7416C35.3442 43.8941 35.1077 39.3226 32.1107 38.8837C29.5792 38.5132 27.3634 41.9667 27.0696 44.1393C27.0356 44.3908 27.9951 44.6062 28.0187 44.4292C28.2695 42.5745 29.6519 40.6008 31.199 39.6026C32.6601 38.6597 33.4048 40.2434 33.6478 41.4575C33.9058 42.7479 33.6537 44.3981 32.7364 45.3863C32.5869 45.5468 33.4691 45.9143 33.6284 45.7416Z" fill="#111C70"/>
<path d="M25.0837 43.9757C26.8938 42.2205 26.8972 37.6425 23.9271 37.0474C21.4183 36.5452 19.0248 39.8781 18.618 42.0319C18.5705 42.2811 19.5174 42.5471 19.5503 42.3715C19.8981 40.5321 21.3818 38.6328 22.9791 37.7175C24.4873 36.8529 25.1483 38.473 25.3269 39.6982C25.5174 41.0006 25.1793 42.6353 24.2117 43.5738C24.0541 43.7263 24.9148 44.1393 25.0837 43.9757Z" fill="#111C70"/>
<path opacity="0.2" d="M74.7951 38.7903C78.4913 43.023 82.7986 45.3101 84.416 43.8974C86.0339 42.4852 84.3482 37.9085 80.652 33.6754C76.9558 29.4428 72.648 27.1557 71.0306 28.5683C69.4132 29.981 71.0988 34.5572 74.7951 38.7903Z" fill="white"/>
<path opacity="0.2" d="M41.3526 87.3368L76.2493 71.988C76.2493 71.988 64.181 89.9381 41.3526 87.3368Z" fill="white"/>
<path d="M20.5821 86.003C20.5821 86.003 19.6722 92.1247 17.8523 93.0342C16.0319 93.9446 13.8813 89.519 13.8813 89.519C13.8813 89.519 11.7306 92.9521 10.8207 92.6213C9.91071 92.2905 11.8131 85.176 11.8131 85.176L15.5779 87.2442V81.95" fill="#FFB0D0"/>
<path d="M10.8206 92.6209C11.2939 92.7923 12.1008 91.9492 12.7661 91.0988L10.8206 89.6098C10.5531 91.1286 10.4367 92.4821 10.8206 92.6209Z" fill="#111C70"/>
<path d="M35.5188 90.1249C35.5188 90.1249 35.5188 100.465 33.2852 99.8034C31.0516 99.1418 29.1492 95.8329 29.1492 95.8329C29.1492 95.8329 27.4943 99.7814 26.5848 99.8341C25.6749 99.8863 26.1711 91.1173 26.1711 91.1173L30.7776 92.7718L32.1274 88.8012" fill="#FFB0D0"/>
<path d="M33.4886 100C33.6669 100 33.8368 99.9404 33.9963 99.8209C35.665 98.5751 35.6842 90.469 35.6842 90.1249H35.3534C35.3534 92.425 35.0739 98.6035 33.7984 99.556C33.6499 99.6669 33.5015 99.6944 33.3324 99.6454C31.1867 99.0094 29.311 95.7829 29.2926 95.7504L29.1259 95.4604L28.9967 95.7692C28.3259 97.3692 27.1314 99.6371 26.5747 99.6692C26.1546 99.4438 26.1147 95.2189 26.3237 91.3483L30.8798 92.9844L32.2836 88.8544L31.9702 88.7477L30.6745 92.5588L26.0181 90.8864L26.0057 91.1077C25.9594 91.9265 25.5755 99.129 26.3434 99.896C26.4345 99.9876 26.5276 100.002 26.594 99.9986C27.4563 99.9491 28.7163 97.2464 29.1744 96.193C29.6936 97.0173 31.3283 99.3961 33.238 99.9615C33.3232 99.9876 33.4066 100 33.4886 100Z" fill="#111C70"/>
<path d="M26.0387 96.3291C26.0584 98.2021 26.1871 99.8566 26.5844 99.8332C26.9715 99.8098 27.4874 99.0919 27.9575 98.2713L26.0387 96.3291Z" fill="#111C70"/>
<path d="M77.9603 66.9794C77.9603 66.9794 79.9456 90.0596 88.7146 70.7846L90.7828 74.2589C90.7828 74.2589 91.9411 66.0695 86.5639 70.1225L84.4242 64.8283" fill="#FFB0D0"/>
<path d="M82.6177 78.6313C84.4055 78.6313 86.4118 76.1727 88.7334 71.1401L90.8804 74.7478L90.9464 74.2823C90.9711 74.1091 91.5278 70.0249 89.8601 69.0417C89.0963 68.5927 88.0127 68.868 86.6372 69.8637L84.5777 64.7669L84.2708 64.8911L86.4911 70.3855L86.6634 70.2559C88.004 69.2451 89.0225 68.9336 89.6919 69.3276C90.8589 70.0153 90.765 72.6475 90.6706 73.7485L88.6949 70.4291L88.5639 70.7168C86.1475 76.0289 84.0536 78.5667 82.345 78.2776C79.0874 77.7163 78.1344 67.0729 78.1252 66.9657L77.7958 66.9941C77.8348 67.4431 78.7823 78 82.2891 78.6038C82.3977 78.6222 82.5072 78.6313 82.6177 78.6313Z" fill="#111C70"/>
<path d="M89.6113 72.2906L90.7824 74.2594C90.7824 74.2594 91.0238 72.5385 90.7728 71.0659L89.6113 72.2906Z" fill="#111C70"/>
</svg>
